<svg id="svg" version="1.1" xmlns="http://www.w3.org/2000/svg" xmlns:xlink="http://www.w3.org/1999/xlink" width="400" height="245.14106583072098" viewBox="0, 0, 400,245.14106583072098"><g id="svgg"><path id="path0" d="M211.599 28.409 C 207.072 30.597,199.373 39.348,199.373 42.305 C 199.373 42.551,198.854 43.502,198.219 44.417 C 197.584 45.333,195.929 48.197,194.540 50.784 C 190.901 57.558,179.917 77.173,178.811 78.871 C 177.798 80.426,203.207 107.210,205.695 107.210 C 207.381 107.210,249.637 82.273,252.225 79.751 C 257.518 74.591,259.074 67.221,256.100 61.387 C 254.643 58.528,227.355 31.038,224.011 29.060 C 220.096 26.745,215.536 26.506,211.599 28.409 M219.949 37.215 C 221.327 37.979,232.275 48.634,242.890 59.543 C 245.562 62.289,247.568 64.827,247.348 65.183 C 247.083 65.611,238.346 65.831,221.542 65.831 L 196.136 65.831 197.364 63.793 C 198.040 62.672,199.439 60.204,200.473 58.307 C 212.832 35.642,214.283 34.071,219.949 37.215 M171.523 86.593 C 168.271 89.151,164.890 94.022,164.890 96.149 C 164.890 99.770,167.640 102.898,170.431 102.451 C 173.524 101.957,174.856 103.317,173.861 105.952 C 172.844 108.647,176.923 112.578,180.115 111.979 C 182.850 111.466,183.878 112.585,183.595 115.767 C 183.331 118.724,186.169 121.003,190.116 121.003 C 192.601 121.003,200.627 114.559,200.627 112.563 C 200.627 111.873,174.793 85.762,173.758 85.406 C 173.480 85.311,172.474 85.845,171.523 86.593 M153.653 115.103 C 152.043 116.458,151.724 117.177,151.724 119.457 C 151.724 126.455,160.125 128.442,163.350 122.205 C 166.354 116.395,158.743 110.820,153.653 115.103 M139.137 126.598 C 135.171 130.563,137.767 137.304,143.260 137.304 C 144.603 137.304,146.053 136.720,147.287 135.681 C 151.475 132.157,148.748 124.765,143.260 124.765 C 141.564 124.765,140.494 125.241,139.137 126.598 M161.993 133.175 C 158.237 134.837,157.086 138.118,158.976 141.773 C 160.966 145.622,166.159 146.168,168.972 142.824 C 173.126 137.888,167.844 130.586,161.993 133.175 M203.275 154.702 C 198.112 157.486,189.665 168.119,185.031 177.666 C 174.582 199.196,176.768 211.936,190.167 207.607 C 194.033 206.358,194.526 206.324,196.216 207.199 C 199.554 208.925,203.011 207.997,207.770 204.097 C 210.995 201.454,211.285 201.403,211.285 203.477 C 211.285 206.986,213.902 208.358,219.641 207.857 C 225.986 207.304,225.689 207.482,229.321 202.038 C 234.345 194.505,243.798 184.654,244.922 185.779 C 245.125 185.982,242.974 190.112,240.141 194.957 C 233.482 206.348,233.433 206.562,237.340 207.270 C 239.518 207.665,240.062 207.248,244.365 201.881 C 248.162 197.144,258.934 186.150,258.934 187.012 C 258.934 187.266,257.806 189.127,256.428 191.147 C 250.330 200.080,250.513 206.389,256.918 208.114 C 259.458 208.798,265.204 207.478,265.204 206.211 C 265.204 205.272,266.476 205.566,268.167 206.897 C 271.049 209.163,277.396 207.357,281.132 203.208 C 282.685 201.482,283.386 201.529,283.386 203.357 C 283.386 207.566,289.104 209.495,293.785 206.866 C 295.910 205.672,296.152 205.654,297.206 206.608 C 302.772 211.645,319.749 205.068,319.749 197.875 C 319.749 194.153,314.301 190.621,308.507 190.586 C 303.847 190.558,304.665 188.517,310.507 185.598 C 314.954 183.376,316.346 183.233,316.796 184.953 C 317.865 189.040,325.647 184.602,325.274 180.118 C 324.544 171.353,300.377 179.690,298.759 189.266 C 297.963 193.977,299.295 195.125,308.018 197.248 C 313.968 198.696,311.892 201.088,304.582 201.206 L 301.641 201.254 301.127 198.653 C 300.296 194.453,299.266 194.414,295.058 198.419 C 293.030 200.350,291.055 201.818,290.669 201.680 C 288.870 201.040,292.010 191.583,295.900 185.929 C 298.998 181.426,297.352 177.887,293.068 179.840 C 291.871 180.385,291.129 180.391,290.143 179.863 C 284.418 176.799,272.115 184.697,267.085 194.665 C 264.270 200.243,259.666 203.641,259.077 200.575 C 258.928 199.799,260.517 196.936,266.304 187.558 C 270.386 180.944,270.696 179.453,268.377 177.578 C 266.101 175.737,259.135 178.158,254.647 182.350 L 252.665 184.202 252.665 182.383 C 252.665 178.224,248.661 176.955,243.980 179.631 C 240.649 181.536,240.752 181.534,240.752 179.666 C 240.752 177.640,238.846 177.085,236.198 178.342 C 234.092 179.341,229.146 186.637,224.762 195.210 C 222.986 198.683,218.724 202.632,217.775 201.683 C 216.715 200.623,221.216 189.085,224.253 185.074 C 226.927 181.543,224.467 177.916,220.748 179.906 C 219.829 180.398,219.073 180.414,218.223 179.959 C 214.268 177.843,206.686 180.876,200.523 187.038 C 197.022 190.540,195.938 192.296,193.244 198.840 C 192.457 200.752,188.888 202.218,186.487 201.615 C 183.527 200.872,184.359 197.496,188.787 192.286 C 190.896 189.804,193.194 187.090,193.894 186.253 C 203.420 174.875,211.738 160.857,210.989 157.446 C 210.247 154.067,206.755 152.825,203.275 154.702 M114.623 156.108 C 111.792 157.984,99.430 169.881,90.026 179.781 C 84.084 186.035,83.955 186.074,86.897 180.721 C 88.177 178.393,90.849 173.527,92.835 169.906 C 94.822 166.285,97.106 162.131,97.910 160.673 C 99.946 156.987,99.170 155.862,94.419 155.610 C 88.096 155.276,81.061 162.110,64.890 184.296 C 61.787 188.554,58.360 193.229,57.275 194.685 C 49.243 205.466,46.290 212.016,48.767 213.563 C 52.187 215.698,53.767 215.323,55.618 211.935 C 59.450 204.921,65.226 196.138,71.301 188.088 C 79.994 176.569,80.220 176.300,80.237 177.461 C 80.245 177.995,80.001 178.701,79.695 179.028 C 78.881 179.900,70.717 196.020,69.232 199.687 C 67.728 203.401,67.871 204.565,70.002 205.961 C 72.689 207.722,73.970 206.758,87.997 192.425 C 95.461 184.799,101.567 178.811,101.567 179.120 C 101.567 179.429,99.363 183.054,96.669 187.176 C 86.799 202.277,85.905 208.150,93.477 208.150 C 98.584 208.150,111.137 197.633,110.079 194.240 C 109.938 193.787,109.653 192.641,109.445 191.693 C 108.903 189.218,107.962 189.531,104.075 193.476 C 100.433 197.173,98.433 198.613,98.433 197.536 C 98.433 196.703,113.751 173.948,120.299 165.055 C 126.143 157.118,126.367 156.054,122.343 155.367 C 120.845 155.111,119.136 154.749,118.546 154.562 C 117.934 154.367,116.248 155.032,114.623 156.108 M200.968 166.606 C 198.113 171.262,197.137 172.679,192.081 179.510 C 187.807 185.285,189.371 180.553,194.076 173.473 C 201.462 162.358,206.893 156.947,200.968 166.606 M129.320 166.477 C 127.041 167.435,125.231 170.501,125.511 172.926 C 125.908 176.364,131.176 175.130,133.254 171.112 C 135.237 167.277,133.180 164.854,129.320 166.477 M142.320 177.359 C 134.012 180.048,128.564 184.157,127.179 188.779 C 125.762 193.510,127.432 194.883,137.774 197.495 C 141.007 198.311,141.150 199.140,138.265 200.345 C 133.329 202.408,128.527 200.895,128.527 197.278 C 128.527 194.735,126.638 194.784,124.232 197.390 C 122.274 199.511,118.430 201.881,116.948 201.881 C 115.854 201.881,117.230 198.670,121.648 190.914 C 126.940 181.624,127.379 180.168,125.417 178.393 C 122.852 176.072,113.475 182.672,115.229 185.564 C 115.950 186.752,115.690 187.501,112.853 192.418 C 107.514 201.668,107.457 205.287,112.609 207.744 C 115.502 209.123,116.579 209.054,120.717 207.225 L 124.228 205.672 126.029 207.003 C 129.962 209.911,140.975 207.529,145.811 202.723 C 151.089 197.479,147.928 192.719,137.774 190.624 C 133.759 189.795,133.553 189.512,135.580 187.609 C 138.937 184.458,144.472 182.899,145.009 184.953 C 145.651 187.408,151.782 185.992,153.311 183.035 C 156.210 177.428,150.776 174.622,142.320 177.359 M167.458 177.755 C 153.762 182.520,147.698 193.297,157.280 195.844 C 157.845 195.994,160.220 196.612,162.559 197.217 C 167.167 198.408,167.603 199.254,164.216 200.435 C 160.768 201.637,156.896 201.463,156.152 200.074 C 154.465 196.921,150.470 199.074,150.470 203.136 C 150.470 210.404,165.726 209.716,172.371 202.147 C 177.040 196.829,173.866 192.558,163.767 190.571 C 159.366 189.705,159.120 189.337,161.710 187.493 C 166.581 184.025,170.817 182.948,171.364 185.040 C 172.345 188.792,179.937 184.587,179.937 180.293 C 179.937 176.104,175.056 175.112,167.458 177.755 M335.881 179.574 C 328.602 182.567,325.257 186.368,325.492 191.378 C 325.614 193.986,325.385 194.597,323.649 196.295 C 316.428 203.353,324.940 211.158,335.929 207.555 C 343.550 205.056,348.088 200.577,347.078 196.552 C 346.542 194.416,346.069 194.533,341.213 197.995 C 334.734 202.614,331.472 203.569,328.812 201.624 C 327.146 200.406,328.581 198.845,333.778 196.220 C 339.961 193.097,340.292 192.758,339.139 190.732 C 338.142 188.981,337.202 188.770,333.856 189.547 L 331.975 189.984 333.856 188.376 C 336.998 185.689,338.994 184.804,339.418 185.909 C 340.524 188.791,347.335 185.082,347.335 181.598 C 347.335 177.812,342.320 176.926,335.881 179.574 M214.318 187.823 C 211.106 192.296,201.919 201.254,200.545 201.254 C 197.322 201.254,206.964 188.878,212.234 186.250 C 216.124 184.309,216.589 184.660,214.318 187.823 M286.466 187.853 C 283.264 192.508,273.206 201.942,272.355 201.090 C 270.737 199.472,279.564 188.666,284.326 186.434 C 288.604 184.429,288.753 184.529,286.466 187.853 " stroke="none" fill="#000000" fill-rule="evenodd"></path></g></svg>