<svg width="520.0274902343749px" height="121.39999999999999px" xmlns="http://www.w3.org/2000/svg" viewBox="-10.013745117187455 14.300000000000004 520.0274902343749 121.39999999999999" style="background: none;" preserveAspectRatio="xMidYMid"><defs><filter id="editing-extrusion" x="-100%" y="-100%" width="300%" height="300%"><feFlood result="color1" flood-color="#5e6fa3"></feFlood><feConvolveMatrix order="3,3" divisor="1" kernelMatrix="1 0 0 0 1 0 0 0 1" in="SourceAlpha" result="extrude"></feConvolveMatrix><feComposite in="color1" in2="extrude" result="comp-extrude" operator="in"></feComposite><feOffset dx="1.5" dy="1.5" in="comp-extrude" result="offset-extrude"></feOffset><feMerge><feMergeNode in="offset-extrude"></feMergeNode><feMergeNode in="SourceGraphic"></feMergeNode></feMerge></filter></defs><g filter="url(#editing-extrusion)"><g transform="translate(66.95898985862732, 99)"><path d="M47.17 1.28L47.17 1.28L47.17 1.28Q39.42 1.28 39.42-4.74L39.42-4.74L39.42-4.74Q39.42-7.36 40.54-12.45L40.54-12.45L40.54-12.45Q41.66-17.54 42.05-19.58L42.05-19.58L42.05-19.58Q42.94-24.26 42.94-25.73L42.94-25.73L42.94-25.73Q42.94-28.99 40.51-28.99L40.51-28.99L40.51-28.99Q38.91-28.99 37.38-26.78L37.38-26.78L37.38-26.78Q35.84-24.58 35.14-20.16L35.14-20.16L31.17 0L18.69 1.28L22.14-16.13L22.14-16.13Q22.72-19.01 23.23-22.27L23.23-22.27L23.23-22.27Q23.74-25.54 23.74-26.05L23.74-26.05L23.74-26.05Q23.74-28.99 21.57-28.99L21.57-28.99L21.57-28.99Q20.10-28.99 18.50-26.82L18.50-26.82L18.50-26.82Q16.90-24.64 16-20.16L16-20.16L12.10 0L-0.51 1.28L6.21-32.64L16.64-33.92L15.55-27.46L15.55-27.46Q17.22-30.91 20.29-32.42L20.29-32.42L20.29-32.42Q23.36-33.92 28.16-33.92L28.16-33.92L28.16-33.92Q30.91-33.92 32.70-32.58L32.70-32.58L32.70-32.58Q34.50-31.23 35.07-29.06L35.07-29.06L35.07-29.06Q36.16-31.30 38.94-32.61L38.94-32.61L38.94-32.61Q41.73-33.92 45.15-33.92L45.15-33.92L45.15-33.92Q48.58-33.92 50.27-33.18L50.27-33.18L50.27-33.18Q51.97-32.45 52.99-31.23L52.99-31.23L52.99-31.23Q54.72-28.99 54.72-24.90L54.72-24.90L54.72-24.90Q54.72-20.86 52.99-12.48L52.99-12.48L52.99-12.48Q52.10-8.38 52.10-6.88L52.10-6.88L52.10-6.88Q52.10-5.38 52.96-4.48L52.96-4.48L52.96-4.48Q53.82-3.58 55.10-3.46L55.10-3.46L55.10-3.46Q54.46-1.28 52.26 0L52.26 0L52.26 0Q50.05 1.28 47.17 1.28ZM75.39-3.52L75.39-3.52L75.39-3.52Q73.41 1.28 67.07 1.28L67.07 1.28L67.07 1.28Q63.81 1.28 61.76-0.96L61.76-0.96L61.76-0.96Q60.03-2.94 60.03-4.93L60.03-4.93L60.03-4.93Q60.03-10.11 62.40-20.22L62.40-20.22L64.77-32.64L77.76-33.92L73.86-13.70L73.86-13.70Q72.77-8.96 72.77-7.30L72.77-7.30L72.77-7.30Q72.77-3.65 75.39-3.52ZM65.92-41.54L65.92-41.54L65.92-41.54Q65.92-44.03 68-45.38L68-45.38L68-45.38Q70.08-46.72 73.09-46.72L73.09-46.72L73.09-46.72Q76.10-46.72 77.92-45.38L77.92-45.38L77.92-45.38Q79.74-44.03 79.74-41.54L79.74-41.54L79.74-41.54Q79.74-39.04 77.73-37.76L77.73-37.76L77.73-37.76Q75.71-36.48 72.70-36.48L72.70-36.48L72.70-36.48Q69.70-36.48 67.81-37.76L67.81-37.76L67.81-37.76Q65.92-39.04 65.92-41.54ZM99.97-22.46L99.97-22.46L99.97-22.46Q100.86-24.83 100.86-26.88L100.86-26.88L100.86-26.88Q100.86-30.66 97.79-30.66L97.79-30.66L97.79-30.66Q96.19-30.66 94.88-29.22L94.88-29.22L94.88-29.22Q93.57-27.78 93.57-25.98L93.57-25.98L93.57-25.98Q93.57-24.70 94.59-23.68L94.59-23.68L94.59-23.68Q96.06-22.27 99.84-19.97L99.84-19.97L99.84-19.97Q103.62-17.66 105.06-15.78L105.06-15.78L105.06-15.78Q106.50-13.89 106.50-11.30L106.50-11.30L106.50-11.30Q106.50-8.70 105.25-6.34L105.25-6.34L105.25-6.34Q104-3.97 101.76-2.30L101.76-2.30L101.76-2.30Q96.96 1.28 89.28 1.28L89.28 1.28L89.28 1.28Q85.12 1.28 81.92-0.90L81.92-0.90L81.92-0.90Q78.72-3.01 78.72-5.50L78.72-5.50L78.72-5.50Q78.72-8 80.54-9.47L80.54-9.47L80.54-9.47Q82.37-10.94 85.06-10.94L85.06-10.94L85.06-10.94Q87.74-10.94 89.41-9.92L89.41-9.92L89.41-9.92Q88.58-7.81 88.58-6.40L88.58-6.40L88.58-6.40Q88.58-2.18 92.16-2.18L92.16-2.18L92.16-2.18Q93.70-2.18 94.72-3.14L94.72-3.14L94.72-3.14Q95.74-4.10 95.74-5.76L95.74-5.76L95.74-5.76Q95.74-9.02 90.24-12.48L90.24-12.48L90.24-12.48Q85.76-15.42 84.74-16.58L84.74-16.58L84.74-16.58Q83.01-18.62 83.01-21.18L83.01-21.18L83.01-21.18Q83.01-23.74 84.22-26.18L84.22-26.18L84.22-26.18Q85.44-28.61 87.68-30.34L87.68-30.34L87.68-30.34Q92.35-33.92 100.48-33.92L100.48-33.92L100.48-33.92Q104.64-33.92 107.10-32.26L107.10-32.26L107.10-32.26Q109.57-30.59 109.57-27.78L109.57-27.78L109.57-27.78Q109.57-24.96 107.87-23.36L107.87-23.36L107.87-23.36Q106.18-21.76 103.10-21.76L103.10-21.76L103.10-21.76Q100.99-21.76 99.97-22.46ZM131.07-22.46L131.07-22.46L131.07-22.46Q131.97-24.83 131.97-26.88L131.97-26.88L131.97-26.88Q131.97-30.66 128.90-30.66L128.90-30.66L128.90-30.66Q127.30-30.66 125.98-29.22L125.98-29.22L125.98-29.22Q124.67-27.78 124.67-25.98L124.67-25.98L124.67-25.98Q124.67-24.70 125.70-23.68L125.70-23.68L125.70-23.68Q127.17-22.27 130.94-19.97L130.94-19.97L130.94-19.97Q134.72-17.66 136.16-15.78L136.16-15.78L136.16-15.78Q137.60-13.89 137.60-11.30L137.60-11.30L137.60-11.30Q137.60-8.70 136.35-6.34L136.35-6.34L136.35-6.34Q135.10-3.97 132.86-2.30L132.86-2.30L132.86-2.30Q128.06 1.28 120.38 1.28L120.38 1.28L120.38 1.28Q116.22 1.28 113.02-0.90L113.02-0.90L113.02-0.90Q109.82-3.01 109.82-5.50L109.82-5.50L109.82-5.50Q109.82-8 111.65-9.47L111.65-9.47L111.65-9.47Q113.47-10.94 116.16-10.94L116.16-10.94L116.16-10.94Q118.85-10.94 120.51-9.92L120.51-9.92L120.51-9.92Q119.68-7.81 119.68-6.40L119.68-6.40L119.68-6.40Q119.68-2.18 123.26-2.18L123.26-2.18L123.26-2.18Q124.80-2.18 125.82-3.14L125.82-3.14L125.82-3.14Q126.85-4.10 126.85-5.76L126.85-5.76L126.85-5.76Q126.85-9.02 121.34-12.48L121.34-12.48L121.34-12.48Q116.86-15.42 115.84-16.58L115.84-16.58L115.84-16.58Q114.11-18.62 114.11-21.18L114.11-21.18L114.11-21.18Q114.11-23.74 115.33-26.18L115.33-26.18L115.33-26.18Q116.54-28.61 118.78-30.34L118.78-30.34L118.78-30.34Q123.46-33.92 131.58-33.92L131.58-33.92L131.58-33.92Q135.74-33.92 138.21-32.26L138.21-32.26L138.21-32.26Q140.67-30.59 140.67-27.78L140.67-27.78L140.67-27.78Q140.67-24.96 138.98-23.36L138.98-23.36L138.98-23.36Q137.28-21.76 134.21-21.76L134.21-21.76L134.21-21.76Q132.10-21.76 131.07-22.46ZM158.34-3.52L158.34-3.52L158.34-3.52Q156.35 1.28 150.02 1.28L150.02 1.28L150.02 1.28Q146.82 1.28 144.77-0.96L144.77-0.96L144.77-0.96Q143.10-2.82 143.10-4.93L143.10-4.93L143.10-4.93Q143.10-9.73 145.34-20.22L145.34-20.22L150.02-44.80L163.01-46.08L156.80-13.70L156.80-13.70Q155.71-8.96 155.71-7.30L155.71-7.30L155.71-7.30Q155.71-3.65 158.34-3.52ZM166.56-1.92L166.56-1.92L166.56-1.92Q165.06-3.58 164.38-6.21L164.38-6.21L164.38-6.21Q163.71-8.83 163.71-13.12L163.71-13.12L163.71-13.12Q163.71-17.41 165.18-21.31L165.18-21.31L165.18-21.31Q166.66-25.22 169.34-28.03L169.34-28.03L169.34-28.03Q174.85-33.92 183.94-33.92L183.94-33.92L183.94-33.92Q187.20-33.92 189.57-32.83L189.57-32.83L200.51-33.92L195.78-8.96L195.78-8.96Q195.58-8.19 195.58-6.78L195.58-6.78L195.58-6.78Q195.58-5.38 196.45-4.48L196.45-4.48L196.45-4.48Q197.31-3.58 198.59-3.46L198.59-3.46L198.59-3.46Q197.95-1.28 195.62 0L195.62 0L195.62 0Q193.28 1.28 190.66 1.28L190.66 1.28L190.66 1.28Q188.03 1.28 186.27 0.29L186.27 0.29L186.27 0.29Q184.51-0.70 184-2.37L184-2.37L184-2.37Q182.98-0.77 180.80 0.26L180.80 0.26L180.80 0.26Q178.62 1.28 175.71 1.28L175.71 1.28L175.71 1.28Q172.80 1.28 170.43 0.51L170.43 0.51L170.43 0.51Q168.06-0.26 166.56-1.92ZM180.06-27.90L180.06-27.90L180.06-27.90Q179.33-26.75 178.69-24.80L178.69-24.80L178.69-24.80Q178.05-22.85 176.99-17.63L176.99-17.63L176.99-17.63Q175.94-12.42 175.94-8.70L175.94-8.70L175.94-8.70Q175.94-4.99 176.51-3.90L176.51-3.90L176.51-3.90Q177.09-2.82 178.11-2.82L178.11-2.82L178.11-2.82Q180.16-2.82 181.66-4.77L181.66-4.77L181.66-4.77Q183.17-6.72 183.74-10.18L183.74-10.18L187.14-28.93L187.14-28.93Q185.79-30.08 184.22-30.08L184.22-30.08L184.22-30.08Q182.66-30.08 181.73-29.57L181.73-29.57L181.73-29.57Q180.80-29.06 180.06-27.90ZM250.05 1.28L250.05 1.28L250.05 1.28Q242.30 1.28 242.30-4.74L242.30-4.74L242.30-4.74Q242.30-7.36 243.42-12.45L243.42-12.45L243.42-12.45Q244.54-17.54 244.93-19.58L244.93-19.58L244.93-19.58Q245.82-24.26 245.82-25.73L245.82-25.73L245.82-25.73Q245.82-28.99 243.39-28.99L243.39-28.99L243.39-28.99Q241.79-28.99 240.26-26.78L240.26-26.78L240.26-26.78Q238.72-24.58 238.02-20.16L238.02-20.16L234.05 0L221.57 1.28L225.02-16.13L225.02-16.13Q225.60-19.01 226.11-22.27L226.11-22.27L226.11-22.27Q226.62-25.54 226.62-26.05L226.62-26.05L226.62-26.05Q226.62-28.99 224.45-28.99L224.45-28.99L224.45-28.99Q222.98-28.99 221.38-26.82L221.38-26.82L221.38-26.82Q219.78-24.64 218.88-20.16L218.88-20.16L214.98 0L202.37 1.28L209.09-32.64L219.52-33.92L218.43-27.46L218.43-27.46Q220.10-30.91 223.17-32.42L223.17-32.42L223.17-32.42Q226.24-33.92 231.04-33.92L231.04-33.92L231.04-33.92Q233.79-33.92 235.58-32.58L235.58-32.58L235.58-32.58Q237.38-31.23 237.95-29.06L237.95-29.06L237.95-29.06Q239.04-31.30 241.82-32.61L241.82-32.61L241.82-32.61Q244.61-33.92 248.03-33.92L248.03-33.92L248.03-33.92Q251.46-33.92 253.15-33.18L253.15-33.18L253.15-33.18Q254.85-32.45 255.87-31.23L255.87-31.23L255.87-31.23Q257.60-28.99 257.60-24.90L257.60-24.90L257.60-24.90Q257.60-20.86 255.87-12.48L255.87-12.48L255.87-12.48Q254.98-8.38 254.98-6.88L254.98-6.88L254.98-6.88Q254.98-5.38 255.84-4.48L255.84-4.48L255.84-4.48Q256.70-3.58 257.98-3.46L257.98-3.46L257.98-3.46Q257.34-1.28 255.14 0L255.14 0L255.14 0Q252.93 1.28 250.05 1.28ZM265.70-1.92L265.70-1.92L265.70-1.92Q264.19-3.58 263.52-6.21L263.52-6.21L263.52-6.21Q262.85-8.83 262.85-13.12L262.85-13.12L262.85-13.12Q262.85-17.41 264.32-21.31L264.32-21.31L264.32-21.31Q265.79-25.22 268.48-28.03L268.48-28.03L268.48-28.03Q273.98-33.92 283.07-33.92L283.07-33.92L283.07-33.92Q286.34-33.92 288.70-32.83L288.70-32.83L299.65-33.92L294.91-8.96L294.91-8.96Q294.72-8.19 294.72-6.78L294.72-6.78L294.72-6.78Q294.72-5.38 295.58-4.48L295.58-4.48L295.58-4.48Q296.45-3.58 297.73-3.46L297.73-3.46L297.73-3.46Q297.09-1.28 294.75 0L294.75 0L294.75 0Q292.42 1.28 289.79 1.28L289.79 1.28L289.79 1.28Q287.17 1.28 285.41 0.29L285.41 0.29L285.41 0.29Q283.65-0.70 283.14-2.37L283.14-2.37L283.14-2.37Q282.11-0.77 279.94 0.26L279.94 0.26L279.94 0.26Q277.76 1.28 274.85 1.28L274.85 1.28L274.85 1.28Q271.94 1.28 269.57 0.51L269.57 0.51L269.57 0.51Q267.20-0.26 265.70-1.92ZM279.20-27.90L279.20-27.90L279.20-27.90Q278.46-26.75 277.82-24.80L277.82-24.80L277.82-24.80Q277.18-22.85 276.13-17.63L276.13-17.63L276.13-17.63Q275.07-12.42 275.07-8.70L275.07-8.70L275.07-8.70Q275.07-4.99 275.65-3.90L275.65-3.90L275.65-3.90Q276.22-2.82 277.25-2.82L277.25-2.82L277.25-2.82Q279.30-2.82 280.80-4.77L280.80-4.77L280.80-4.77Q282.30-6.72 282.88-10.18L282.88-10.18L286.27-28.93L286.27-28.93Q284.93-30.08 283.36-30.08L283.36-30.08L283.36-30.08Q281.79-30.08 280.86-29.57L280.86-29.57L280.86-29.57Q279.94-29.06 279.20-27.90ZM322.24-22.46L322.24-22.46L322.24-22.46Q323.14-24.83 323.14-26.88L323.14-26.88L323.14-26.88Q323.14-30.66 320.06-30.66L320.06-30.66L320.06-30.66Q318.46-30.66 317.15-29.22L317.15-29.22L317.15-29.22Q315.84-27.78 315.84-25.98L315.84-25.98L315.84-25.98Q315.84-24.70 316.86-23.68L316.86-23.68L316.86-23.68Q318.34-22.27 322.11-19.97L322.11-19.97L322.11-19.97Q325.89-17.66 327.33-15.78L327.33-15.78L327.33-15.78Q328.77-13.89 328.77-11.30L328.77-11.30L328.77-11.30Q328.77-8.70 327.52-6.34L327.52-6.34L327.52-6.34Q326.27-3.97 324.03-2.30L324.03-2.30L324.03-2.30Q319.23 1.28 311.55 1.28L311.55 1.28L311.55 1.28Q307.39 1.28 304.19-0.90L304.19-0.90L304.19-0.90Q300.99-3.01 300.99-5.50L300.99-5.50L300.99-5.50Q300.99-8 302.82-9.47L302.82-9.47L302.82-9.47Q304.64-10.94 307.33-10.94L307.33-10.94L307.33-10.94Q310.02-10.94 311.68-9.92L311.68-9.92L311.68-9.92Q310.85-7.81 310.85-6.40L310.85-6.40L310.85-6.40Q310.85-2.18 314.43-2.18L314.43-2.18L314.43-2.18Q315.97-2.18 316.99-3.14L316.99-3.14L316.99-3.14Q318.02-4.10 318.02-5.76L318.02-5.76L318.02-5.76Q318.02-9.02 312.51-12.48L312.51-12.48L312.51-12.48Q308.03-15.42 307.01-16.58L307.01-16.58L307.01-16.58Q305.28-18.62 305.28-21.18L305.28-21.18L305.28-21.18Q305.28-23.74 306.50-26.18L306.50-26.18L306.50-26.18Q307.71-28.61 309.95-30.34L309.95-30.34L309.95-30.34Q314.62-33.92 322.75-33.92L322.75-33.92L322.75-33.92Q326.91-33.92 329.38-32.26L329.38-32.26L329.38-32.26Q331.84-30.59 331.84-27.78L331.84-27.78L331.84-27.78Q331.84-24.96 330.14-23.36L330.14-23.36L330.14-23.36Q328.45-21.76 325.38-21.76L325.38-21.76L325.38-21.76Q323.26-21.76 322.24-22.46ZM360.13-10.82L360.13-10.82L360.13-10.82Q361.73-9.73 361.73-7.33L361.73-7.33L361.73-7.33Q361.73-4.93 360.51-3.39L360.51-3.39L360.51-3.39Q359.30-1.86 357.31-0.83L357.31-0.83L357.31-0.83Q353.22 1.28 348.80 1.28L348.80 1.28L348.80 1.28Q344.38 1.28 341.79 0.32L341.79 0.32L341.79 0.32Q339.20-0.64 337.47-2.43L337.47-2.43L337.47-2.43Q334.08-5.82 334.08-12.03L334.08-12.03L334.08-12.03Q334.08-21.70 339.33-27.58L339.33-27.58L339.33-27.58Q344.96-33.92 354.75-33.92L354.75-33.92L354.75-33.92Q360.83-33.92 363.84-31.36L363.84-31.36L363.84-31.36Q366.08-29.44 366.08-26.30L366.08-26.30L366.08-26.30Q366.08-15.04 346.62-15.04L346.62-15.04L346.62-15.04Q346.37-13.38 346.37-11.97L346.37-11.97L346.37-11.97Q346.37-9.02 347.68-7.90L347.68-7.90L347.68-7.90Q348.99-6.78 351.42-6.78L351.42-6.78L351.42-6.78Q353.86-6.78 356.45-7.90L356.45-7.90L356.45-7.90Q359.04-9.02 360.13-10.82ZM347.07-17.79L347.07-17.79L347.07-17.79Q351.62-17.79 354.24-20.61L354.24-20.61L354.24-20.61Q356.86-23.30 356.86-27.58L356.86-27.58L356.86-27.58Q356.86-29.06 356.32-29.86L356.32-29.86L356.32-29.86Q355.78-30.66 354.69-30.66L354.69-30.66L354.69-30.66Q353.60-30.66 352.67-30.24L352.67-30.24L352.67-30.24Q351.74-29.82 350.78-28.42L350.78-28.42L350.78-28.42Q348.42-25.22 347.07-17.79Z" fill="#689cc5"></path></g></g><style>text {
  font-size: 64px;
  font-family: Arial Black;
  dominant-baseline: central;
  text-anchor: middle;
}</style></svg>