<svg xmlns="http://www.w3.org/2000/svg" xmlns:svgjs="http://svgjs.com/svgjs" xmlns:xlink="http://www.w3.org/1999/xlink" width="288" height="288"><svg xmlns="http://www.w3.org/2000/svg" width="288" height="288" viewBox="0 0 400 145.411"><path fill="#fff" fill-rule="evenodd" d="M78.474 22.739 C 74.521 24.660,72.495 27.508,62.529 45.169 C 57.281 54.469,52.750 62.472,52.460 62.953 C 51.807 64.038,73.051 85.148,74.477 84.831 C 75.207 84.669,91.759 75.274,104.222 67.946 C 112.464 63.101,115.182 59.669,115.182 54.106 C 115.182 49.215,114.286 47.968,101.759 35.416 C 87.774 21.402,84.688 19.722,78.474 22.739 M85.410 29.674 C 86.128 30.052,91.498 35.215,97.343 41.147 L 107.971 51.932 97.431 52.063 C 91.634 52.134,82.379 52.134,76.865 52.063 L 66.838 51.932 72.324 42.029 C 79.391 29.271,81.275 27.492,85.410 29.674 M252.889 45.338 C 244.739 50.308,233.816 70.466,233.816 80.536 C 233.816 86.758,238.650 89.207,244.862 86.134 C 246.758 85.196,246.862 85.192,247.621 86.030 C 249.635 88.257,254.210 87.082,258.031 83.357 L 259.781 81.651 260.091 83.591 C 260.453 85.853,262.696 87.627,264.734 87.263 C 265.399 87.144,266.812 86.904,267.874 86.729 C 268.937 86.554,270.285 86.315,270.869 86.198 C 271.545 86.062,272.993 84.435,274.845 81.731 C 278.404 76.535,286.957 67.847,286.957 69.428 C 286.957 69.645,285.629 72.101,284.005 74.887 C 279.015 83.452,278.744 83.972,278.744 84.987 C 278.744 86.099,280.481 86.751,282.246 86.301 C 282.844 86.149,284.529 84.448,285.990 82.522 C 288.747 78.889,297.569 69.872,297.972 70.275 C 298.099 70.402,297.648 71.231,296.971 72.119 C 289.482 81.938,292.384 90.853,301.588 86.299 C 304.040 85.085,304.103 85.079,305.062 85.974 C 307.372 88.129,309.965 87.614,314.358 84.127 C 317.302 81.791,317.391 81.765,317.391 83.268 C 317.391 86.677,321.287 88.265,325.064 86.396 L 327.399 85.240 328.711 86.219 C 333.186 89.560,346.377 84.376,346.377 79.277 C 346.377 76.383,340.943 72.947,336.368 72.947 C 334.682 72.947,334.679 72.174,336.357 70.898 C 339.608 68.427,343.478 67.047,343.478 68.359 C 343.478 70.582,347.528 70.249,349.791 67.839 C 355.020 62.274,346.290 60.175,337.074 64.782 C 326.210 70.214,326.505 75.881,337.802 78.766 C 340.497 79.455,340.684 80.003,338.527 80.883 C 333.667 82.866,330.918 81.922,330.918 78.270 C 330.918 76.265,329.494 76.616,326.795 79.287 C 320.808 85.214,321.527 79.087,328.126 67.952 L 329.225 66.097 328.046 65.142 C 327.269 64.512,326.528 64.299,325.873 64.517 C 324.754 64.887,323.948 64.877,320.621 64.449 C 315.611 63.803,307.318 69.950,304.388 76.481 C 303.372 78.746,302.466 79.970,301.136 80.873 C 296.759 83.847,297.056 81.668,302.145 73.474 C 306.966 65.710,307.007 65.615,306.245 64.168 C 304.757 61.344,299.974 62.325,294.807 66.516 L 292.754 68.181 292.754 66.532 C 292.754 62.726,288.267 62.220,284.420 65.592 C 283.643 66.274,283.575 66.235,283.575 65.110 C 283.575 63.315,282.633 62.740,280.608 63.299 C 278.063 64.002,275.255 67.851,270.969 76.512 C 269.472 79.536,266.961 82.126,265.526 82.126 C 264.020 82.126,266.966 73.862,270.120 69.237 C 272.338 65.985,270.923 63.371,267.674 64.717 C 266.649 65.142,266.008 65.157,265.293 64.775 C 260.321 62.114,249.437 69.653,246.520 77.778 C 244.763 82.669,239.130 84.192,239.130 79.775 C 239.130 78.248,239.554 77.466,241.674 75.082 C 252.135 63.322,260.279 50.808,259.718 47.356 C 259.243 44.427,255.969 43.459,252.889 45.338 M179.209 49.377 C 172.536 55.412,169.812 58.083,163.552 64.734 C 157.579 71.081,157.338 71.915,165.905 56.608 C 172.142 45.464,172.155 45.301,166.832 45.475 C 161.637 45.645,154.858 52.546,140.698 72.079 C 129.544 87.467,128.283 90.119,131.342 91.756 C 133.815 93.079,135.290 92.237,137.207 88.406 C 138.550 85.724,145.512 75.127,148.372 71.413 C 149.533 69.905,151.662 67.135,153.104 65.257 C 156.876 60.343,156.661 61.044,150.930 72.332 C 145.457 83.114,145.282 83.801,147.618 85.332 C 149.811 86.769,150.932 85.926,162.689 73.999 L 173.964 62.560 169.767 69.031 C 160.970 82.591,160.263 85.104,164.720 86.951 C 168.717 88.606,179.227 80.601,179.227 75.902 C 179.227 71.788,178.271 71.501,175.368 74.746 C 173.289 77.068,170.508 79.364,170.176 79.032 C 169.675 78.532,181.167 61.570,188.501 51.984 C 192.902 46.232,192.798 45.604,187.357 45.096 L 184.264 44.807 179.209 49.377 M252.878 52.536 C 251.413 55.082,242.590 67.633,242.265 67.633 C 241.819 67.633,243.175 64.843,245.551 60.870 C 247.166 58.170,253.295 50.242,253.768 50.242 C 254.004 50.242,253.604 51.274,252.878 52.536 M194.873 54.097 C 191.806 55.336,190.624 60.466,193.334 60.779 C 195.073 60.979,196.469 60.171,197.609 58.303 C 199.551 55.117,198.052 52.812,194.873 54.097 M206.791 62.363 C 193.694 64.931,188.160 75.429,198.551 77.995 C 204.766 79.529,205.120 80.173,200.434 81.420 C 195.857 82.638,195.232 82.298,193.967 77.899 C 193.532 76.383,192.434 76.543,190.920 78.342 C 189.692 79.802,185.751 82.609,184.930 82.609 C 184.047 82.609,184.649 80.414,186.298 77.618 C 193.138 66.015,193.604 64.660,191.215 63.318 C 188.856 61.994,182.354 67.283,183.563 69.542 C 184.021 70.399,183.704 71.257,181.453 75.251 C 178.357 80.743,177.937 82.111,178.746 84.063 C 180.119 87.379,184.131 88.272,188.305 86.192 C 190.643 85.027,190.863 84.997,191.615 85.749 C 194.333 88.467,201.492 87.618,206.562 83.977 C 212.592 79.647,210.508 74.982,201.812 73.342 C 198.022 72.627,197.970 72.530,200.335 70.580 C 203.322 68.118,207.246 67.128,207.246 68.837 C 207.246 70.699,211.828 69.923,213.519 67.774 C 214.517 66.505,214.780 64.486,214.089 63.397 C 213.246 62.068,210.371 61.660,206.791 62.363 M227.693 62.320 C 222.449 63.410,215.866 67.466,214.210 70.628 C 212.150 74.560,213.804 76.586,220.476 78.307 C 225.796 79.678,225.712 80.555,220.165 81.580 C 216.961 82.172,216.341 82.029,215.690 80.546 C 214.604 78.070,210.685 81.228,211.348 84.046 C 212.924 90.737,230.435 86.215,230.435 79.116 C 230.435 75.991,228.293 74.428,222.509 73.331 C 218.800 72.627,218.748 72.526,221.108 70.580 C 224.264 67.979,227.029 67.345,228.294 68.932 C 230.204 71.327,235.266 68.637,235.266 65.227 C 235.266 62.675,232.005 61.423,227.693 62.320 M360.360 63.986 C 353.500 66.513,349.873 70.699,351.094 74.679 C 351.567 76.218,351.508 76.363,350.035 77.273 C 345.744 79.925,346.604 85.552,351.508 86.914 C 358.104 88.745,368.089 84.040,368.109 79.091 C 368.119 76.461,367.122 76.351,364.080 78.649 C 360.230 81.555,357.992 82.609,355.668 82.609 C 351.474 82.609,352.595 80.350,358.360 77.184 C 363.176 74.539,363.460 72.152,358.937 72.323 L 356.280 72.423 357.729 71.204 C 359.959 69.330,361.354 68.899,362.062 69.867 C 363.226 71.459,367.098 69.379,368.049 66.651 C 369.086 63.677,365.022 62.268,360.360 63.986 M44.565 71.099 C 41.191 74.928,40.901 76.068,42.499 79.202 C 43.603 81.366,44.183 81.667,46.025 81.035 C 48.063 80.334,48.967 81.325,48.617 83.876 C 48.228 86.718,51.194 89.658,53.553 88.768 C 55.695 87.959,56.710 88.960,56.357 91.535 C 55.916 94.747,60.728 97.287,63.642 95.381 C 65.369 94.251,70.048 89.830,70.048 89.328 C 70.048 88.689,48.783 67.631,48.160 67.653 C 47.844 67.664,46.226 69.215,44.565 71.099 M262.258 71.269 C 259.301 75.386,251.679 82.332,251.315 81.241 C 250.485 78.751,259.490 69.082,262.638 69.082 L 263.828 69.082 262.258 71.269 M320.773 69.380 C 320.773 70.689,312.172 79.816,309.683 81.148 C 306.795 82.694,310.963 75.297,314.775 72.110 C 317.446 69.877,320.773 68.363,320.773 69.380 M33.563 90.529 C 28.567 92.706,31.333 100.762,36.708 99.687 C 41.351 98.759,42.157 92.318,37.855 90.520 C 35.922 89.713,35.436 89.714,33.563 90.529 M21.792 99.708 C 16.355 102.722,21.079 110.737,26.766 108.146 C 27.430 107.843,28.323 106.857,28.752 105.953 C 30.759 101.724,25.947 97.405,21.792 99.708 M39.765 105.399 C 35.478 106.541,34.993 112.370,39.025 114.284 C 42.395 115.883,45.894 113.574,45.894 109.751 C 45.894 106.832,42.754 104.603,39.765 105.399 " class="color000 svgShape"/></svg></svg>