<?xml version="1.0" encoding="UTF-8"?>
<!DOCTYPE svg PUBLIC "-//W3C//DTD SVG 1.1//EN" "http://www.w3.org/Graphics/SVG/1.1/DTD/svg11.dtd">
<svg xmlns="http://www.w3.org/2000/svg" version="1.1" width="512px" height="512px" style="shape-rendering:geometricPrecision; text-rendering:geometricPrecision; image-rendering:optimizeQuality; fill-rule:evenodd; clip-rule:evenodd" xmlns:xlink="http://www.w3.org/1999/xlink">
<g><path style="opacity:0.987" fill="#c3d3df" d="M 216.5,39.5 C 214.126,47.7519 216.126,54.7519 222.5,60.5C 220.748,62.2459 219.415,64.2459 218.5,66.5C 217.313,68.0725 216.313,69.7392 215.5,71.5C 205.828,71.3335 196.161,71.5002 186.5,72C 180.223,80.2482 171.889,85.2482 161.5,87C 145.389,89.9325 131.222,86.0992 119,75.5C 109.4,62.7577 109.067,49.7577 118,36.5C 132.695,23.3075 149.528,19.8075 168.5,26C 175.924,28.4323 181.924,32.7657 186.5,39C 196.494,39.4998 206.494,39.6665 216.5,39.5 Z"/></g>
<g><path style="opacity:0.996" fill="#f3cdae" d="M 383.5,39.5 C 383.5,55.5 383.5,71.5 383.5,87.5C 373.571,86.7113 366.404,90.7113 362,99.5C 360.062,102.106 357.562,103.939 354.5,105C 340.267,108.975 325.933,112.475 311.5,115.5C 316.163,110.669 320.663,105.669 325,100.5C 327.879,94.8739 329.212,88.8739 329,82.5C 333.613,82.2307 335.613,79.8974 335,75.5C 334.5,75 334,74.5 333.5,74C 311.46,80.261 292.127,75.5944 275.5,60C 273.256,59.0943 270.923,58.5943 268.5,58.5C 262.847,59.9892 257.181,61.4892 251.5,63C 243.833,63.6667 236.167,63.6667 228.5,63C 226.593,61.878 224.593,61.0447 222.5,60.5C 216.126,54.7519 214.126,47.7519 216.5,39.5C 218.872,32.9681 223.539,29.1348 230.5,28C 250.312,24.1274 270.312,22.6274 290.5,23.5C 301.167,23.6667 311.833,23.8333 322.5,24C 326.009,24.4219 329.343,25.4219 332.5,27C 347.874,37.5489 364.874,41.7155 383.5,39.5 Z"/></g>
<g><path style="opacity:1" fill="#a6b2bc" d="M 143.5,31.5 C 157.961,29.811 170.128,34.1443 180,44.5C 185.926,55.7437 183.76,65.2437 173.5,73C 160.16,80.8008 146.493,81.4674 132.5,75C 115.323,61.9446 115.323,48.9446 132.5,36C 136.123,34.1865 139.79,32.6865 143.5,31.5 Z"/></g>
<g><path style="opacity:1" fill="#2f4054" d="M 383.5,87.5 C 383.5,71.5 383.5,55.5 383.5,39.5C 383.5,36.8333 383.5,34.1667 383.5,31.5C 420.833,31.5 458.167,31.5 495.5,31.5C 495.5,58.1667 495.5,84.8333 495.5,111.5C 458.167,111.5 420.833,111.5 383.5,111.5C 383.5,103.5 383.5,95.5 383.5,87.5 Z"/></g>
<g><path style="opacity:1" fill="#f2c194" d="M 311.5,115.5 C 306.427,117.435 301.094,118.768 295.5,119.5C 302.798,111.702 310.298,104.035 318,96.5C 320.132,92.7924 320.965,88.7924 320.5,84.5C 301.49,85.9881 285.157,80.1548 271.5,67C 269.5,66.3333 267.5,66.3333 265.5,67C 257.285,70.581 248.618,72.081 239.5,71.5C 231.674,72.5789 224.674,70.9123 218.5,66.5C 219.415,64.2459 220.748,62.2459 222.5,60.5C 224.593,61.0447 226.593,61.878 228.5,63C 236.167,63.6667 243.833,63.6667 251.5,63C 257.181,61.4892 262.847,59.9892 268.5,58.5C 270.923,58.5943 273.256,59.0943 275.5,60C 292.127,75.5944 311.46,80.261 333.5,74C 334,74.5 334.5,75 335,75.5C 335.613,79.8974 333.613,82.2307 329,82.5C 329.212,88.8739 327.879,94.8739 325,100.5C 320.663,105.669 316.163,110.669 311.5,115.5 Z"/></g>
<g><path style="opacity:0.996" fill="#f4cdae" d="M 218.5,66.5 C 224.674,70.9123 231.674,72.5789 239.5,71.5C 248.618,72.081 257.285,70.581 265.5,67C 267.5,66.3333 269.5,66.3333 271.5,67C 285.157,80.1548 301.49,85.9881 320.5,84.5C 320.965,88.7924 320.132,92.7924 318,96.5C 310.298,104.035 302.798,111.702 295.5,119.5C 294.251,121.136 292.584,122.303 290.5,123C 286.833,123.667 283.167,123.667 279.5,123C 259.668,111.585 240.002,99.9186 220.5,88C 215.872,83.3339 214.205,77.8339 215.5,71.5C 216.313,69.7392 217.313,68.0725 218.5,66.5 Z"/></g>
<g><path style="opacity:0.952" fill="#966242" d="M 115.5,95.5 C 126.86,94.71 130.193,99.5434 125.5,110C 114.964,113.997 110.464,110.497 112,99.5C 112.69,97.6498 113.856,96.3164 115.5,95.5 Z"/></g>
<g><path style="opacity:0.952" fill="#966242" d="M 187.5,95.5 C 198.86,94.71 202.193,99.5434 197.5,110C 186.964,113.997 182.464,110.497 184,99.5C 184.69,97.6498 185.856,96.3164 187.5,95.5 Z"/></g>
<g><path style="opacity:0.952" fill="#966242" d="M 163.5,103.5 C 174.86,102.71 178.193,107.543 173.5,118C 162.964,121.997 158.464,118.497 160,107.5C 160.69,105.65 161.856,104.316 163.5,103.5 Z"/></g>
<g><path style="opacity:0.952" fill="#966242" d="M 139.5,111.5 C 150.86,110.71 154.193,115.543 149.5,126C 138.964,129.997 134.464,126.497 136,115.5C 136.69,113.65 137.856,112.316 139.5,111.5 Z"/></g>
<g><path style="opacity:0.952" fill="#966242" d="M 179.5,119.5 C 190.86,118.71 194.193,123.543 189.5,134C 178.964,137.997 174.464,134.497 176,123.5C 176.69,121.65 177.856,120.316 179.5,119.5 Z"/></g>
<g><path style="opacity:0.952" fill="#966242" d="M 115.5,127.5 C 126.86,126.71 130.193,131.543 125.5,142C 114.964,145.997 110.464,142.497 112,131.5C 112.69,129.65 113.856,128.316 115.5,127.5 Z"/></g>
<g><path style="opacity:0.952" fill="#966242" d="M 147.5,135.5 C 158.86,134.71 162.193,139.543 157.5,150C 146.964,153.997 142.464,150.497 144,139.5C 144.69,137.65 145.856,136.316 147.5,135.5 Z"/></g>
<g><path style="opacity:0.952" fill="#966242" d="M 171.5,143.5 C 182.86,142.71 186.193,147.543 181.5,158C 170.964,161.997 166.464,158.497 168,147.5C 168.69,145.65 169.856,144.316 171.5,143.5 Z"/></g>
<g><path style="opacity:0.993" fill="#ad7c4c" d="M 207.5,255.5 C 159.5,255.5 111.5,255.5 63.5,255.5C 68.3533,237.437 73.52,219.437 79,201.5C 87.9669,172.434 107.467,160.267 137.5,165C 170.718,177.886 192.552,201.386 203,235.5C 204.82,242.111 206.32,248.778 207.5,255.5 Z"/></g>
<g><path style="opacity:1" fill="#976442" d="M 108.5,191.5 C 116.658,190.823 120.158,194.49 119,202.5C 116.774,206.861 113.274,208.361 108.5,207C 104.139,204.774 102.639,201.274 104,196.5C 105.025,194.313 106.525,192.646 108.5,191.5 Z"/></g>
<g><path style="opacity:1" fill="#976442" d="M 148.5,207.5 C 156.658,206.823 160.158,210.49 159,218.5C 156.774,222.861 153.274,224.361 148.5,223C 144.139,220.774 142.639,217.274 144,212.5C 145.025,210.313 146.525,208.646 148.5,207.5 Z"/></g>
<g><path style="opacity:1" fill="#976442" d="M 108.5,215.5 C 116.658,214.823 120.158,218.49 119,226.5C 116.774,230.861 113.274,232.361 108.5,231C 104.139,228.774 102.639,225.274 104,220.5C 105.025,218.313 106.525,216.646 108.5,215.5 Z"/></g>
<g><path style="opacity:0.995" fill="#8acce6" d="M 63.5,255.5 C 111.5,255.5 159.5,255.5 207.5,255.5C 212.833,255.5 218.167,255.5 223.5,255.5C 222.866,276.263 212.533,289.43 192.5,295C 178.837,295.5 165.171,295.667 151.5,295.5C 140.833,295.5 130.167,295.5 119.5,295.5C 105.829,295.667 92.1626,295.5 78.5,295C 58.467,289.43 48.1337,276.263 47.5,255.5C 52.8333,255.5 58.1667,255.5 63.5,255.5 Z"/></g>
<g><path style="opacity:1" fill="#379ec3" d="M 119.5,295.5 C 130.167,295.5 140.833,295.5 151.5,295.5C 151.5,306.5 151.5,317.5 151.5,328.5C 140.815,327.324 130.148,327.324 119.5,328.5C 119.5,317.5 119.5,306.5 119.5,295.5 Z"/></g>
<g><path style="opacity:0.998" fill="#8acce6" d="M 151.5,328.5 C 193.647,335.319 223.147,358.319 240,397.5C 243.429,406.217 245.763,415.217 247,424.5C 247.5,445.497 247.667,466.497 247.5,487.5C 172.833,487.5 98.1667,487.5 23.5,487.5C 23.3334,466.497 23.5,445.497 24,424.5C 32.0924,378.746 57.9257,347.912 101.5,332C 107.399,330.253 113.399,329.087 119.5,328.5C 130.148,327.324 140.815,327.324 151.5,328.5 Z"/></g>
<g><path style="opacity:1" fill="#c3d3df" d="M 182.5,399.5 C 174.833,399.5 167.167,399.5 159.5,399.5C 159.5,404.833 159.5,410.167 159.5,415.5C 167.167,415.5 174.833,415.5 182.5,415.5C 179.366,432.807 169.699,444.973 153.5,452C 150.28,453.352 146.947,454.186 143.5,454.5C 143.5,446.833 143.5,439.167 143.5,431.5C 138.167,431.5 132.833,431.5 127.5,431.5C 127.5,439.167 127.5,446.833 127.5,454.5C 110.205,451.379 98.0381,441.713 91,425.5C 89.8497,422.232 89.0164,418.899 88.5,415.5C 96.1667,415.5 103.833,415.5 111.5,415.5C 111.5,410.167 111.5,404.833 111.5,399.5C 103.833,399.5 96.1667,399.5 88.5,399.5C 94.2708,374.898 109.771,361.565 135,359.5C 160.788,361.128 176.621,374.461 182.5,399.5 Z"/></g>
<g><path style="opacity:1" fill="#385065" d="M 143.5,393.5 C 138.139,390.902 132.805,390.902 127.5,393.5C 127.5,387.5 127.5,381.5 127.5,375.5C 132.833,375.5 138.167,375.5 143.5,375.5C 143.5,381.5 143.5,387.5 143.5,393.5 Z"/></g>
<g><path style="opacity:1" fill="#314255" d="M 143.5,393.5 C 153.378,401.581 154.045,410.414 145.5,420C 133.226,426.775 124.726,423.608 120,410.5C 118.683,403.136 121.183,397.469 127.5,393.5C 132.805,390.902 138.139,390.902 143.5,393.5 Z"/></g>
<g><path style="opacity:1" fill="#2f4155" d="M 88.5,399.5 C 96.1667,399.5 103.833,399.5 111.5,399.5C 111.5,404.833 111.5,410.167 111.5,415.5C 103.833,415.5 96.1667,415.5 88.5,415.5C 87.1667,410.167 87.1667,404.833 88.5,399.5 Z"/></g>
<g><path style="opacity:1" fill="#2f4155" d="M 182.5,399.5 C 183.833,404.833 183.833,410.167 182.5,415.5C 174.833,415.5 167.167,415.5 159.5,415.5C 159.5,410.167 159.5,404.833 159.5,399.5C 167.167,399.5 174.833,399.5 182.5,399.5 Z"/></g>
<g><path style="opacity:1" fill="#e34c4e" d="M 143.5,454.5 C 138.167,455.833 132.833,455.833 127.5,454.5C 127.5,446.833 127.5,439.167 127.5,431.5C 132.833,431.5 138.167,431.5 143.5,431.5C 143.5,439.167 143.5,446.833 143.5,454.5 Z"/></g>
</svg>
